<svg width="24" height="24" viewBox="0 0 24 24" fill="none" xmlns="http://www.w3.org/2000/svg">
	<path fill-rule="evenodd" clip-rule="evenodd" d="M10.3446 2.97052C10.9698 3.0264 11.5853 3.35034 12.1913 3.93244C12.3653 4.09965 12.5234 4.26194 12.662 4.40998C13.0976 4.49548 13.7846 4.62473 14.119 4.69709C14.8536 4.85605 15.7688 5.05568 16.4852 5.21564C17.1508 5.36423 18.3323 5.59006 19.1493 6.18439C19.5812 6.49887 19.9517 6.94282 20.0848 7.55646C20.2158 8.16139 20.096 8.84194 19.7372 9.5965C19.5958 9.89367 19.4455 10.1684 19.3153 10.4012C19.336 10.6057 19.4263 11.5613 19.452 11.8455C19.5234 12.6371 19.6106 13.6122 19.6737 14.3426C19.704 14.6938 19.7514 15.159 19.7538 15.6278C19.7561 16.0956 19.7145 16.6191 19.5438 17.0985C19.3682 17.5913 19.0492 18.0542 18.5018 18.3436C17.9671 18.6262 17.2891 18.7036 16.4686 18.5897C16.3379 18.5715 16.213 18.5517 16.0955 18.534C16.0937 18.5348 16.0918 18.536 16.0897 18.5369L16.0194 18.5672C15.9583 18.5934 15.8692 18.631 15.7586 18.6785C15.5369 18.7739 15.227 18.9074 14.8758 19.0594C14.1723 19.364 13.3034 19.7435 12.6385 20.0408C12.3206 20.183 11.8915 20.3869 11.4452 20.5506C10.9987 20.7143 10.4839 20.8579 9.9686 20.868C9.44099 20.8782 8.8852 20.7466 8.41782 20.3338C7.95949 19.9285 7.65531 19.3127 7.49301 18.4969C7.44006 18.2306 7.40064 17.9825 7.36996 17.7654C7.13927 17.5184 6.64283 16.9489 6.40805 16.6776C5.92404 16.1182 5.32078 15.4297 4.82895 14.9041C4.59707 14.6563 4.25324 14.3123 3.94516 13.9471C3.63449 13.5788 3.3141 13.1386 3.11899 12.6561C2.92022 12.1639 2.83964 11.5917 3.06332 11.0057C3.28379 10.4288 3.76333 9.93489 4.48422 9.51447C4.6809 9.39978 4.85942 9.30135 5.01743 9.21857C5.05764 9.10456 5.11654 8.97221 5.23325 8.7215C5.34994 8.47085 5.52724 8.11397 5.7352 7.75959C6.10246 7.13375 6.56644 6.34975 6.94516 5.71955C7.29848 5.13161 7.8993 4.06619 8.73325 3.45881C9.1714 3.13977 9.7137 2.91431 10.3446 2.97052ZM12.3788 8.24689C12.1825 7.73157 11.4539 7.73158 11.2577 8.24689L10.6922 9.73029C10.4689 10.3165 10.0059 10.7794 9.41977 11.0028L7.93637 11.5682C7.42105 11.7644 7.42106 12.4931 7.93637 12.6893L9.41977 13.2547C10.0058 13.4781 10.4689 13.9411 10.6922 14.5272L11.2577 16.0115C11.4542 16.526 12.1823 16.5261 12.3788 16.0115L12.9442 14.5272C13.1675 13.941 13.6304 13.4781 14.2166 13.2547L15.701 12.6893C16.2153 12.4927 16.2153 11.7647 15.701 11.5682L14.2166 11.0028C13.6305 10.7794 13.1675 10.3164 12.9442 9.73029L12.3788 8.24689ZM16.159 7.57404C15.9876 7.2199 15.4426 7.24491 15.3241 7.64924L15.201 8.07013L14.7801 8.19318C14.349 8.31961 14.349 8.93103 14.7801 9.05744L15.201 9.17951L15.3241 9.60041C15.4504 10.0317 16.0621 10.0319 16.1883 9.60041L16.3104 9.17951L16.7313 9.05744C17.1625 8.93107 17.1624 8.31961 16.7313 8.19318L16.3104 8.07013L16.1883 7.64924L16.159 7.57404Z" fill="#ffffff"/>
</svg>
