<svg width="24" height="24" viewBox="0 0 24 24" fill="none" xmlns="http://www.w3.org/2000/svg">
<g transform="translate(3.5 5)">
<path d="M2.5498 0.271694C3.32298 0.271694 3.95016 0.898917 3.9502 1.67208V11.6721C3.9502 12.4453 3.323 13.0725 2.5498 13.0725H1.40039C0.627192 13.0725 0 12.4453 0 11.6721V1.67208C3.67212e-05 0.898917 0.627215 0.271694 1.40039 0.271694H2.5498Z" fill="white"/>
<path d="M7.63965 0.271694C8.41282 0.271694 9.04 0.898917 9.04004 1.67208V11.6721C9.04004 12.4453 8.41285 13.0725 7.63965 13.0725H6.49023C5.71704 13.0725 5.08984 12.4453 5.08984 11.6721V1.67208C5.08988 0.898917 5.71706 0.271694 6.49023 0.271694H7.63965Z" fill="white"/>
<path d="M11.9736 0.0480609C12.7204 -0.151962 13.4883 0.290563 13.6885 1.03732L16.2764 10.6965C16.4765 11.4434 16.033 12.2112 15.2861 12.4113L14.1758 12.7092C13.4289 12.9093 12.6611 12.4658 12.4609 11.719L9.87305 2.05978C9.67294 1.31298 10.1155 0.545119 10.8623 0.344936L11.9736 0.0480609Z" fill="white"/>
</g>
</svg>
