<svg width="24" height="24" viewBox="0 0 24 24" fill="none" xmlns="http://www.w3.org/2000/svg">
<path transform="translate(4 4.5)" fill-rule="evenodd" clip-rule="evenodd" d="M10.7275 0.0684879C11.7943 -0.217133 12.8909 0.416726 13.1768 1.48353L15.752 11.0929C16.0378 12.1597 15.4046 13.2571 14.3379 13.5431L13.2529 13.8331C12.186 14.119 11.0896 13.486 10.8037 12.4191L9.0459 5.85853V12.215C9.0459 13.3194 8.15031 14.2148 7.0459 14.215H5.92285C5.37723 14.215 4.8833 13.996 4.52246 13.6417C4.16165 13.9957 3.66833 14.2149 3.12305 14.215H2C0.895431 14.215 0 13.3195 0 12.215V2.26575C9.86933e-05 1.16127 0.895491 0.265754 2 0.265754H3.12305C3.66799 0.265846 4.1617 0.484458 4.52246 0.838019C4.88324 0.484148 5.37757 0.265754 5.92285 0.265754H7.0459C7.6817 0.265862 8.24693 0.563924 8.61328 1.0265C8.86938 0.712714 9.2215 0.472377 9.64258 0.359504L10.7275 0.0684879ZM2 1.46497C1.55823 1.46497 1.19932 1.82401 1.19922 2.26575V12.215C1.19922 12.6568 1.55817 13.0158 2 13.0158H3.12305C3.56471 13.0156 3.92285 12.6567 3.92285 12.215V2.26575C3.92275 1.82413 3.56465 1.46516 3.12305 1.46497H2ZM5.92285 1.46497C5.48434 1.46497 5.12741 1.81873 5.12207 2.25599C5.12209 2.25924 5.12305 2.2625 5.12305 2.26575V12.215C5.12305 12.2182 5.12209 12.2215 5.12207 12.2247C5.12722 12.6622 5.48422 13.0158 5.92285 13.0158H7.0459C7.48757 13.0156 7.8457 12.6567 7.8457 12.215V2.26575C7.8456 1.82413 7.48751 1.46516 7.0459 1.46497H5.92285ZM12.0176 1.79407C11.9033 1.36742 11.4648 1.11354 11.0381 1.22767L9.95312 1.51771C9.52651 1.63202 9.27267 2.07155 9.38672 2.49818L11.9619 12.1085C12.0762 12.5352 12.5157 12.7891 12.9424 12.6749L14.0273 12.3839C14.4539 12.2694 14.7071 11.8301 14.5928 11.4034L12.0176 1.79407Z" fill="white"/>
</svg>
